<?xml version="1.0" encoding="UTF-8" standalone="no"?>
<svg
   xmlns:dc="http://purl.org/dc/elements/1.1/"
   xmlns:cc="http://creativecommons.org/ns#"
   xmlns:rdf="http://www.w3.org/1999/02/22-rdf-syntax-ns#"
   xmlns:svg="http://www.w3.org/2000/svg"
   xmlns="http://www.w3.org/2000/svg"
   viewBox="0 0 743.62225 511.37277"
   height="511.37277"
   width="743.62225"
   xml:space="preserve"
   id="svg2"
   version="1.1"><metadata
     id="metadata8"><rdf:RDF><cc:Work
         rdf:about=""><dc:format>image/svg+xml</dc:format><dc:type
           rdf:resource="http://purl.org/dc/dcmitype/StillImage" /></cc:Work></rdf:RDF></metadata><defs
     id="defs6"><clipPath
       id="clipPath14"
       clipPathUnits="userSpaceOnUse"><path
         id="path12"
         d="M 0,0 H 960 V 540 H 0 Z" /></clipPath><clipPath
       id="clipPath24"
       clipPathUnits="userSpaceOnUse"><path
         id="path22"
         d="M 0,1.206994e-5 H 959.76 V 540.00001 H 0 Z" /></clipPath></defs><g
     clip-path="url(#clipPath14)"
     transform="matrix(1.3333333,0,0,-1.3333333,-279.50573,590.1664)"
     id="g10"><g
       id="g16" /><g
       id="g18"><g
         clip-path="url(#clipPath24)"
         id="g20"><path
           id="path26"
           style="fill:#ffffff;fill-opacity:1;fill-rule:nonzero;stroke:none"
           d="M 0,540 H 959.76 V 1.206994e-5 H 0 Z" /></g></g><g
       id="g28"><path
         id="path30"
         style="fill:#ffffff;fill-opacity:1;fill-rule:nonzero;stroke:none"
         d="M 0,540 H 960 V 1.40816e-5 H 0 Z" /><path
         id="path32"
         style="fill:#deebf7;fill-opacity:1;fill-rule:evenodd;stroke:none"
         d="m 544.0424,206.131 c 0,11.1273 9.0204,20.1478 20.1477,20.1478 h 178.576 c 11.1272,0 20.1477,-9.0205 20.1477,-20.1478 V 83.69554 c 0,-11.12727 -9.0205,-20.14772 -20.1477,-20.14772 h -178.576 c -11.1273,0 -20.1477,9.02045 -20.1477,20.14772 z" /><g
         transform="matrix(7.874016e-5,0,0,-7.874016e-5,544.0424,226.2788)"
         id="g34"><path
           id="path36"
           style="fill:none;stroke:#deebf7;stroke-width:28575;stroke-linecap:butt;stroke-linejoin:miter;stroke-miterlimit:8;stroke-dasharray:none;stroke-opacity:1"
           d="M 0,255876.1 C 0,114559.6 114559.5,0 255875.9,0 H 2523791 c 141316,0 255876,114559.6 255876,255876.1 V 1810807 c 0,141316 -114560,255876 -255876,255876 H 255875.9 C 114559.5,2066683 0,1952123 0,1810807 Z" /></g><path
         id="path38"
         style="fill:#ffc000;fill-opacity:1;fill-rule:evenodd;stroke:none"
         d="m 467.1801,188.5592 c -3.3311,0 -6.0315,-10.3195 -6.0315,-23.0493 0,-12.7298 2.7004,-23.0493 6.0315,-23.0493 l -80.0889,1e-4 c -3.3311,0 -6.0315,10.3195 -6.0315,23.0493 0,12.7298 2.7004,23.0493 6.0315,23.0493 z" /><path
         id="path40"
         style="fill:#ffd966;fill-opacity:1;fill-rule:evenodd;stroke:none"
         d="m 467.1801,188.5592 c 3.3311,0 6.0315,-10.3195 6.0315,-23.0493 0,-12.7298 -2.7004,-23.0493 -6.0315,-23.0493 -3.3311,0 -6.0315,10.3195 -6.0315,23.0493 0,12.7298 2.7004,23.0493 6.0315,23.0493 z" /><g
         transform="matrix(0,-7.874016e-5,-7.874016e-5,0,473.2116,188.5592)"
         id="g42"><path
           id="path44"
           style="fill:none;stroke:#000000;stroke-width:28575;stroke-linecap:butt;stroke-linejoin:miter;stroke-miterlimit:8;stroke-dasharray:none;stroke-opacity:1"
           d="M 585451,76599.98 C 585451,118905 454393,153200 292724.9,153200 131056.7,153200 -1.27989,118905 -1.27989,76599.98 -1.27989,34294.98 131056.7,0 292724.9,0 454393,0 585451,34294.98 585451,76599.98 V 1093729 c 0,42305 -131058,76600 -292726.1,76600 C 131056.7,1170329 -1.27989,1136034 -1.27989,1093729 L 0,76599.98" /></g><g
         transform="matrix(0.24,0,0,0.24,389.731,-371.04)"
         id="g46"><text
           id="text50"
           style="font-variant:normal;font-weight:normal;font-size:66.66665649px;font-family:LucidaSans;-inkscape-font-specification:LucidaSans;writing-mode:lr-tb;fill:#000000;fill-opacity:1;fill-rule:nonzero;stroke:none"
           transform="matrix(1,0,0,-1,0,2250)"><tspan
             id="tspan48"
             y="0"
             x="0 42.186661 69.23999 106.22665 147.34665 181.19998 205.65332 242.63997">Transfer</tspan></text>
</g><g
         transform="matrix(0.24,0,0,0.24,397.166,-390)"
         id="g52"><text
           id="text56"
           style="font-variant:normal;font-weight:normal;font-size:66.66665649px;font-family:LucidaSans;-inkscape-font-specification:LucidaSans;writing-mode:lr-tb;fill:#000000;fill-opacity:1;fill-rule:nonzero;stroke:none"
           transform="matrix(1,0,0,-1,0,2250)"><tspan
             id="tspan54"
             y="0"
             x="0 51.559994 92.719994 129.67999 170.83998">Queue</tspan></text>
</g><g
         transform="matrix(7.874016e-5,0,0,-7.874016e-5,382.2223,389.3336)"
         id="g58"><path
           id="path60"
           style="fill:none;stroke:#000000;stroke-width:28575;stroke-linecap:butt;stroke-linejoin:miter;stroke-miterlimit:8;stroke-dasharray:none;stroke-opacity:1"
           d="M 0,267175.2 C 0,119618.4 119618.5,0 267175.5,0 H 1335847 c 147557,0 267175,119618.4 267175,267175.2 V 1736606 c 0,147557 -119618,267175 -267175,267175 H 267175.5 C 119618.5,2003781 0,1884163 0,1736606 Z" /></g><g
         transform="matrix(0.24,0,0,0.24,400.7084,-235.92)"
         id="g62"><text
           id="text66"
           style="font-variant:normal;font-weight:normal;font-size:66.66665649px;font-family:LucidaSans;-inkscape-font-specification:LucidaSans;writing-mode:lr-tb;fill:#000000;fill-opacity:1;fill-rule:nonzero;stroke:none"
           transform="matrix(1,0,0,-1,0,2250)"><tspan
             id="tspan64"
             y="0"
             x="0 45.833328 87.533325 124.49998 165.66666 190.69998 212.06665 247.49997 288.66663 329.83331">Agent Loop</tspan></text>
</g><path
         id="path68"
         style="fill:#deebf7;fill-opacity:1;fill-rule:evenodd;stroke:none"
         d="m 613.1899,367.4898 c 0,13.782 11.1725,24.9545 24.9545,24.9545 h 99.815 c 13.7819,0 24.9544,-11.1725 24.9544,-24.9545 V 256.51 c 0,-13.782 -11.1725,-24.9545 -24.9544,-24.9545 h -99.815 c -13.782,0 -24.9545,11.1725 -24.9545,24.9545 z" /><g
         transform="matrix(7.874016e-5,0,0,-7.874016e-5,613.1899,392.4443)"
         id="g70"><path
           id="path72"
           style="fill:none;stroke:#000000;stroke-width:28575;stroke-linecap:butt;stroke-linejoin:miter;stroke-miterlimit:8;stroke-dasharray:none;stroke-opacity:1"
           d="M 0,316921.9 C 0,141890.8 141890.8,0 316922,0 h 1267650 c 175031,0 316922,141890.8 316922,316921.9 V 1726366 c 0,175031 -141891,316922 -316922,316922 H 316922 C 141890.8,2043288 0,1901397 0,1726366 Z" /></g><g
         transform="matrix(0.24,0,0,0.24,630.8019,-234.48)"
         id="g74"><text
           id="text78"
           style="font-variant:normal;font-weight:normal;font-size:66.66665649px;font-family:LucidaSans;-inkscape-font-specification:LucidaSans;writing-mode:lr-tb;fill:#000000;fill-opacity:1;fill-rule:nonzero;stroke:none"
           transform="matrix(1,0,0,-1,0,2250)"><tspan
             id="tspan76"
             y="0"
             x="0 35.939995 72.946663 106.81999 140.69331 159.96664 201.10664 242.24664 263.58664 305.7933 346.93329 388.0733 413.07996 450.08661">Session Router</tspan></text>
</g><path
         id="path80"
         style="fill:#d9d9d9;fill-opacity:1;fill-rule:evenodd;stroke:none"
         d="m 217.3968,376.7845 c 0,6.4639 5.2401,11.7039 11.704,11.7039 h 64.3477 c 6.4639,0 11.7039,-5.24 11.7039,-11.7039 v -46.8143 c 0,-6.4639 -5.24,-11.7039 -11.7039,-11.7039 h -64.3477 c -6.4639,0 -11.704,5.24 -11.704,11.7039 z" /><g
         transform="matrix(7.874016e-5,0,0,-7.874016e-5,217.3968,388.4884)"
         id="g82"><path
           id="path84"
           style="fill:none;stroke:#000000;stroke-width:28575;stroke-linecap:butt;stroke-linejoin:miter;stroke-miterlimit:8;stroke-dasharray:none;stroke-opacity:1"
           d="M 0,148639.9 C 0,66548.34 66548.25,0 148639.7,0 H 965856.3 C 1047948,0 1114496,66548.34 1114496,148639.9 v 594541.2 c 0,82091.6 -66548,148639.9 -148639.7,148639.9 H 148639.7 C 66548.25,891821 0,825272.7 0,743181.1 Z" /></g><g
         transform="matrix(0.24,0,0,0.24,232.4621,-183.36)"
         id="g86"><text
           id="text90"
           style="font-variant:normal;font-weight:normal;font-size:66.66665649px;font-family:LucidaSans;-inkscape-font-specification:LucidaSans;writing-mode:lr-tb;fill:#000000;fill-opacity:1;fill-rule:nonzero;stroke:none"
           transform="matrix(1,0,0,-1,0,2250)"><tspan
             id="tspan88"
             y="0"
             x="0 35.939995 77.079994 111.48666 130.75999 157.83331 198.97331">Environ</tspan></text>
</g><g
         transform="matrix(0.24,0,0,0.24,241.3971,-202.32)"
         id="g92"><text
           id="text96"
           style="font-variant:normal;font-weight:normal;font-size:66.66665649px;font-family:LucidaSans;-inkscape-font-specification:LucidaSans;writing-mode:lr-tb;fill:#000000;fill-opacity:1;fill-rule:nonzero;stroke:none"
           transform="matrix(1,0,0,-1,0,2250)"><tspan
             id="tspan94"
             y="0"
             x="0 62.499992 99.46666 140.63332">ment</tspan></text>
</g><path
         id="path98"
         style="fill:#c5e0b4;fill-opacity:1;fill-rule:evenodd;stroke:none"
         d="m 217.3968,293.3212 c 0,6.4639 5.24,11.7039 11.7039,11.7039 h 65.583 c 6.4638,0 11.7039,-5.24 11.7039,-11.7039 v -46.8143 c 0,-6.4639 -5.2401,-11.7039 -11.7039,-11.7039 h -65.583 c -6.4639,0 -11.7039,5.24 -11.7039,11.7039 z" /><g
         transform="matrix(7.874016e-5,0,0,-7.874016e-5,217.3968,305.0251)"
         id="g100"><path
           id="path102"
           style="fill:none;stroke:#000000;stroke-width:28575;stroke-linecap:butt;stroke-linejoin:miter;stroke-miterlimit:8;stroke-dasharray:none;stroke-opacity:1"
           d="M 0,148639.5 C 0,66548.18 66548.09,0 148639.3,0 H 981543.6 C 1063635,0 1130183,66548.18 1130183,148639.5 v 594542 c 0,82091.3 -66548,148639.5 -148639.4,148639.5 H 148639.3 C 66548.09,891821 0,825272.8 0,743181.5 Z" /></g><g
         transform="matrix(0.24,0,0,0.24,233.4546,-266.88)"
         id="g104"><text
           id="text108"
           style="font-variant:normal;font-weight:normal;font-size:66.66665649px;font-family:LucidaSans;-inkscape-font-specification:LucidaSans;writing-mode:lr-tb;fill:#000000;fill-opacity:1;fill-rule:nonzero;stroke:none"
           transform="matrix(1,0,0,-1,0,2250)"><tspan
             id="tspan106"
             y="0"
             x="0 42.186661 79.173325 130.75999 167.74664 194.79999 236.98665">Reward </tspan></text>
</g><g
         transform="matrix(0.24,0,0,0.24,234.8896,-285.84)"
         id="g110"><text
           id="text114"
           style="font-variant:normal;font-weight:normal;font-size:66.66665649px;font-family:LucidaSans;-inkscape-font-specification:LucidaSans;writing-mode:lr-tb;fill:#000000;fill-opacity:1;fill-rule:nonzero;stroke:none"
           transform="matrix(1,0,0,-1,0,2250)"><tspan
             id="tspan112"
             y="0"
             x="0 35.939995 72.946663 100.01999 134.35999 153.63332 188.03998">Service</tspan></text>
</g><g
         transform="matrix(7.874016e-5,0,0,-7.874016e-5,217.3966,226.2788)"
         id="g116"><path
           id="path118"
           style="fill:none;stroke:#c00000;stroke-width:28575;stroke-linecap:butt;stroke-linejoin:miter;stroke-miterlimit:8;stroke-dasharray:none;stroke-opacity:1"
           d="M 0,188366.8 C 0,84334.71 84334.72,0 188366.9,0 H 941812.1 C 1045844,0 1130179,84334.71 1130179,188366.8 V 1840356 c 0,104032 -84335,188367 -188366.9,188367 H 188366.9 C 84334.72,2028723 0,1944388 0,1840356 Z" /></g><g
         transform="matrix(0.24,0,0,0.24,241.8918,-371.28)"
         id="g120"><text
           id="text124"
           style="font-variant:normal;font-weight:normal;font-size:66.66665649px;font-family:LucidaSans;-inkscape-font-specification:LucidaSans;writing-mode:lr-tb;fill:#000000;fill-opacity:1;fill-rule:nonzero;stroke:none"
           transform="matrix(1,0,0,-1,0,2250)"><tspan
             id="tspan122"
             y="0"
             x="0 42.186661 69.23999 106.22665 125.47999 166.59999">Train </tspan></text>
</g><g
         transform="matrix(0.24,0,0,0.24,234.4569,-390.24)"
         id="g126"><text
           id="text130"
           style="font-variant:normal;font-weight:normal;font-size:66.66665649px;font-family:LucidaSans;-inkscape-font-specification:LucidaSans;writing-mode:lr-tb;fill:#000000;fill-opacity:1;fill-rule:nonzero;stroke:none"
           transform="matrix(1,0,0,-1,0,2250)"><tspan
             id="tspan128"
             y="0"
             x="0 57.293327 98.453323 125.54665 164.57332 201.53331">Worker</tspan></text>
</g><g
         transform="matrix(0.24,0,0,0.24,229.3918,-409.2)"
         id="g132"><text
           id="text136"
           style="font-variant:normal;font-weight:normal;font-size:66.66665649px;font-family:LucidaSans;-inkscape-font-specification:LucidaSans;writing-mode:lr-tb;fill:#000000;fill-opacity:1;fill-rule:nonzero;stroke:none"
           transform="matrix(1,0,0,-1,0,2250)"><tspan
             id="tspan134"
             y="0"
             x="0 21.873331 57.813328 93.753326 143.75998 180.76665 213.57332">(FSDP/M</tspan></text>
</g><g
         transform="matrix(0.24,0,0,0.24,229.2669,-428.16)"
         id="g138"><text
           id="text142"
           style="font-variant:normal;font-weight:normal;font-size:66.66665649px;font-family:LucidaSans;-inkscape-font-specification:LucidaSans;writing-mode:lr-tb;fill:#000000;fill-opacity:1;fill-rule:nonzero;stroke:none"
           transform="matrix(1,0,0,-1,0,2250)"><tspan
             id="tspan140"
             y="0"
             x="0 36.979996 78.626656 115.60665 140.58665 167.63332 208.81331 249.92664">egatron)</tspan></text>
</g><path
         id="path144"
         style="fill:#ffe699;fill-opacity:1;fill-rule:evenodd;stroke:none"
         d="m 384.2209,115.4111 c 0,4.5146 3.6598,8.1743 8.1744,8.1743 h 72.642 c 4.5146,0 8.1744,-3.6597 8.1744,-8.1743 V 82.71506 c 0,-4.51456 -3.6598,-8.17433 -8.1744,-8.17433 h -72.642 c -4.5146,0 -8.1744,3.65977 -8.1744,8.17433 z" /><g
         transform="matrix(7.874016e-5,0,0,-7.874016e-5,384.2209,123.5854)"
         id="g146"><path
           id="path148"
           style="fill:none;stroke:#000000;stroke-width:28575;stroke-linecap:butt;stroke-linejoin:miter;stroke-miterlimit:8;stroke-dasharray:none;stroke-opacity:1"
           d="M 0,103814 C 0,46479.11 46479.04,0 103813.8,0 H 1026368 c 57335,0 103814,46479.11 103814,103814 v 415240 c 0,57334.9 -46479,103814 -103814,103814 H 103813.8 C 46479.04,622868 0,576388.9 0,519054 Z" /></g><g
         transform="matrix(0.24,0,0,0.24,419.9663,-437.76)"
         id="g150"><text
           id="text154"
           style="font-variant:normal;font-weight:normal;font-size:66.66665649px;font-family:LucidaSans;-inkscape-font-specification:LucidaSans;writing-mode:lr-tb;fill:#000000;fill-opacity:1;fill-rule:nonzero;stroke:none"
           transform="matrix(1,0,0,-1,0,2250)"><tspan
             id="tspan152"
             y="0"
             x="0 36.979996 72.893326">PS </tspan></text>
</g><g
         transform="matrix(0.24,0,0,0.24,399.3413,-456.72)"
         id="g156"><text
           id="text160"
           style="font-variant:normal;font-weight:normal;font-size:66.66665649px;font-family:LucidaSans;-inkscape-font-specification:LucidaSans;writing-mode:lr-tb;fill:#000000;fill-opacity:1;fill-rule:nonzero;stroke:none"
           transform="matrix(1,0,0,-1,0,2250)"><tspan
             id="tspan158"
             y="0"
             x="0 35.939995 60.946659 102.08665 129.15999 166.16666 207.83998">Storage</tspan></text>
</g><path
         id="path162"
         style="fill:#ffffff;fill-opacity:1;fill-rule:evenodd;stroke:none"
         d="m 548.4281,125.8468 c 0,6.0769 4.9263,11.0031 11.0031,11.0031 h 84.9999 c 6.0768,0 11.0031,-4.9262 11.0031,-11.0031 V 81.83564 c 0,-6.07685 -4.9263,-11.00311 -11.0031,-11.00311 h -84.9999 c -6.0768,0 -11.0031,4.92626 -11.0031,11.00311 z" /><g
         transform="matrix(7.874016e-5,0,0,-7.874016e-5,548.4281,136.8499)"
         id="g164"><path
           id="path166"
           style="fill:none;stroke:#5b9bd5;stroke-width:28575;stroke-linecap:butt;stroke-linejoin:miter;stroke-miterlimit:8;stroke-dasharray:none;stroke-opacity:1"
           d="M 0,139739.6 C 0,62563.53 62563.51,0 139739.5,0 H 1219237 c 77176,0 139740,62563.53 139740,139739.6 v 558941.9 c 0,77176 -62564,139739.5 -139740,139739.5 H 139739.5 C 62563.51,838421 0,775857.5 0,698681.5 Z" /></g><g
         transform="matrix(0.24,0,0,0.24,582.4311,-423.36)"
         id="g168"><text
           id="text172"
           style="font-variant:normal;font-weight:normal;font-size:66.66665649px;font-family:LucidaSans;-inkscape-font-specification:LucidaSans;writing-mode:lr-tb;fill:#000000;fill-opacity:1;fill-rule:nonzero;stroke:none"
           transform="matrix(1,0,0,-1,0,2250)"><tspan
             id="tspan170"
             y="0"
             x="0 34.373329 69.813324 105.25333 162.55998">vLLM </tspan></text>
</g><g
         transform="matrix(0.24,0,0,0.24,574.4311,-442.32)"
         id="g174"><text
           id="text178"
           style="font-variant:normal;font-weight:normal;font-size:66.66665649px;font-family:LucidaSans;-inkscape-font-specification:LucidaSans;writing-mode:lr-tb;fill:#000000;fill-opacity:1;fill-rule:nonzero;stroke:none"
           transform="matrix(1,0,0,-1,0,2250)"><tspan
             id="tspan176"
             y="0"
             x="0 42.186661 83.306656 102.55999 121.81332 162.93332 204.05331 229.03998">Rollout </tspan></text>
</g><g
         transform="matrix(0.24,0,0,0.24,578.1211,-461.28)"
         id="g180"><text
           id="text184"
           style="font-variant:normal;font-weight:normal;font-size:66.66665649px;font-family:LucidaSans;-inkscape-font-specification:LucidaSans;writing-mode:lr-tb;fill:#000000;fill-opacity:1;fill-rule:nonzero;stroke:none"
           transform="matrix(1,0,0,-1,0,2250)"><tspan
             id="tspan182"
             y="0"
             x="0 35.939995 72.946663 100.01999 134.35999 171.36665">Server</tspan></text>
</g><path
         id="path186"
         style="fill:#9dc3e6;fill-opacity:1;fill-rule:evenodd;stroke:none"
         d="m 547.985,196.9803 c 0,4.0502 3.2833,7.3335 7.3335,7.3335 h 90.9371 c 4.0501,0 7.3335,-3.2833 7.3335,-7.3335 v -29.333 c 0,-4.0502 -3.2834,-7.3335 -7.3335,-7.3335 h -90.9371 c -4.0502,0 -7.3335,3.2833 -7.3335,7.3335 z" /><g
         transform="matrix(7.874016e-5,0,0,-7.874016e-5,547.985,204.3138)"
         id="g188"><path
           id="path190"
           style="fill:none;stroke:#000000;stroke-width:28575;stroke-linecap:butt;stroke-linejoin:miter;stroke-miterlimit:8;stroke-dasharray:none;stroke-opacity:1"
           d="M 0,93135.53 C 0,41698.2 41698.17,0 93135.48,0 H 1248037 c 51437,0 93135,41698.2 93135,93135.53 V 465664.5 c 0,51437.3 -41698,93135.5 -93135,93135.5 H 93135.48 C 41698.17,558800 0,517101.8 0,465664.5 Z" /></g><g
         transform="matrix(0.24,0,0,0.24,582.162,-354.48)"
         id="g192"><text
           id="text196"
           style="font-variant:normal;font-weight:normal;font-size:66.66665649px;font-family:LucidaSans;-inkscape-font-specification:LucidaSans;writing-mode:lr-tb;fill:#000000;fill-opacity:1;fill-rule:nonzero;stroke:none"
           transform="matrix(1,0,0,-1,0,2250)"><tspan
             id="tspan194"
             y="0"
             x="0 42.186661 61.439995 103.62666 155.21332">TITO </tspan></text>
</g><g
         transform="matrix(0.24,0,0,0.24,575.162,-373.44)"
         id="g198"><text
           id="text202"
           style="font-variant:normal;font-weight:normal;font-size:66.66665649px;font-family:LucidaSans;-inkscape-font-specification:LucidaSans;writing-mode:lr-tb;fill:#000000;fill-opacity:1;fill-rule:nonzero;stroke:none"
           transform="matrix(1,0,0,-1,0,2250)"><tspan
             id="tspan200"
             y="0"
             x="0 42.186661 83.306656 124.42665 149.41331 186.39998">Router</tspan></text>
</g><path
         id="path204"
         style="fill:#a3dbff;fill-opacity:1;fill-rule:nonzero;stroke:none"
         d="M 754.7937,206.9146 V 71.35933 h -57.111 V 206.9146 Z" /><g
         transform="matrix(0,-7.874016e-5,-7.874016e-5,0,754.7937,206.9146)"
         id="g206"><path
           id="path208"
           style="fill:none;stroke:#000000;stroke-width:28575;stroke-linecap:butt;stroke-linejoin:miter;stroke-miterlimit:8;stroke-dasharray:none;stroke-opacity:1"
           d="M 0,0 H 1721552 V 725309 H 0 Z" /></g><g
         transform="matrix(0,-0.24,0.24,0,189.4382,166.56)"
         id="g210"><text
           id="text214"
           style="font-variant:normal;font-weight:normal;font-size:66.66665649px;font-family:LucidaSans;-inkscape-font-specification:LucidaSans;writing-mode:lr-tb;fill:#000000;fill-opacity:1;fill-rule:nonzero;stroke:none"
           transform="matrix(1,0,0,-1,0,2250)"><tspan
             id="tspan212"
             y="0"
             x="0 42.186661 83.306656 102.55999 121.81332 162.93332 204.05331 229.03998">Rollout </tspan></text>
</g><g
         transform="matrix(0,-0.24,0.24,0,170.4382,185.76)"
         id="g216"><text
           id="text220"
           style="font-variant:normal;font-weight:normal;font-size:66.66665649px;font-family:LucidaSans;-inkscape-font-specification:LucidaSans;writing-mode:lr-tb;fill:#000000;fill-opacity:1;fill-rule:nonzero;stroke:none"
           transform="matrix(1,0,0,-1,0,2250)"><tspan
             id="tspan218"
             y="0"
             x="0 46.353329 87.50666 128.65999 155.74666 197.96664 217.25331 258.40665 295.35999 320.37997 361.53329">Coordinator</tspan></text>
</g><path
         id="path222"
         style="fill:#ffe699;fill-opacity:1;fill-rule:nonzero;stroke:none"
         d="M 217.3967,436.1516 H 762.9138 V 401.93 H 217.3967 Z" /><g
         transform="matrix(7.874016e-5,0,0,-7.874016e-5,217.3967,436.1516)"
         id="g224"><path
           id="path226"
           style="fill:none;stroke:#000000;stroke-width:28575;stroke-linecap:butt;stroke-linejoin:miter;stroke-miterlimit:8;stroke-dasharray:none;stroke-opacity:1"
           d="M 0,0 H 6928067 V 434614 H 0 Z" /></g><g
         transform="matrix(0.24,0,0,0.24,445.4677,-127.44)"
         id="g228"><text
           id="text232"
           style="font-variant:normal;font-weight:normal;font-size:66.66665649px;font-family:LucidaSans;-inkscape-font-specification:LucidaSans;writing-mode:lr-tb;fill:#000000;fill-opacity:1;fill-rule:nonzero;stroke:none"
           transform="matrix(1,0,0,-1,0,2250)"><tspan
             id="tspan230"
             y="0"
             x="0 36.979996 72.893326 94.273323 151.58665 188.56665 229.67998 266.65997 308.30664 345.28662">PS Manager</tspan></text>
</g><path
         id="path234"
         style="fill:#000000;fill-opacity:1;fill-rule:nonzero;stroke:none"
         d="m 497.706,378.0406 120.5972,-10e-5 v -2.25 l -120.5972,10e-5 z m 119.4721,2.2499 6.75,-3.375 -6.75,-3.375 z" /><g
         transform="matrix(0.24,0,0,0.24,508.2546,-155.76)"
         id="g236"><text
           id="text240"
           style="font-variant:normal;font-weight:normal;font-size:50px;font-family:CambriaMath;-inkscape-font-specification:CambriaMath;writing-mode:lr-tb;fill:#000000;fill-opacity:1;fill-rule:nonzero;stroke:none"
           transform="matrix(1,0,0,-1,0,2250)"><tspan
             id="tspan238"
             y="0"
             x="0">❶</tspan></text>
</g><g
         transform="matrix(0.24,0,0,0.24,526.2546,-155.76)"
         id="g242"><text
           id="text246"
           style="font-variant:normal;font-weight:normal;font-size:50px;font-family:TrebuchetMS;-inkscape-font-specification:TrebuchetMS;writing-mode:lr-tb;fill:#000000;fill-opacity:1;fill-rule:nonzero;stroke:none"
           transform="matrix(1,0,0,-1,0,2250)"><tspan
             id="tspan244"
             y="0"
             x="0 25 44.25 71.349998 97.400002 117.2 144.3 170.35001 190.64999 217.75 238.05 258.35001 272.39999 299.5 326.60001 344.85001">create_session()</tspan></text>
</g><path
         id="path248"
         style="fill:#000000;fill-opacity:1;fill-rule:nonzero;stroke:none"
         d="m 497.706,330.1686 120.5972,-1e-4 v -2.25 l -120.5972,1e-4 z m 119.4721,2.2499 6.75,-3.375 -6.75,-3.375 z" /><g
         transform="matrix(0.24,0,0,0.24,509.3858,-203.04)"
         id="g250"><text
           id="text254"
           style="font-variant:normal;font-weight:normal;font-size:50px;font-family:CambriaMath;-inkscape-font-specification:CambriaMath;writing-mode:lr-tb;fill:#000000;fill-opacity:1;fill-rule:nonzero;stroke:none"
           transform="matrix(1,0,0,-1,0,2250)"><tspan
             id="tspan252"
             y="0"
             x="0">❷</tspan></text>
</g><g
         transform="matrix(0.24,0,0,0.24,527.3858,-203.04)"
         id="g256"><text
           id="text260"
           style="font-variant:normal;font-weight:normal;font-size:50px;font-family:TrebuchetMS;-inkscape-font-specification:TrebuchetMS;writing-mode:lr-tb;fill:#000000;fill-opacity:1;fill-rule:nonzero;stroke:none"
           transform="matrix(1,0,0,-1,0,2250)"><tspan
             id="tspan258"
             y="0"
             x="0 28.125 62 85.974998 114.25 129.375 155.39999 180.425 207.5 233.52499 253.3 279.32501 304.35001 331.42499 373.10001 400.72501 415.29999 442.375 462.14999 476.22501 503.29999 530.375">POST /chat/completions</tspan></text>
</g><path
         id="path262"
         style="fill:#000000;fill-opacity:1;fill-rule:nonzero;stroke:none"
         d="m 497.706,288.5045 120.5972,-1e-4 v -2.25 l -120.5972,1e-4 z m 119.4721,2.2499 6.75,-3.375 -6.75,-3.375 z" /><g
         transform="matrix(0.24,0,0,0.24,508.7952,-246.24)"
         id="g264"><text
           id="text268"
           style="font-variant:normal;font-weight:normal;font-size:50px;font-family:CambriaMath;-inkscape-font-specification:CambriaMath;writing-mode:lr-tb;fill:#000000;fill-opacity:1;fill-rule:nonzero;stroke:none"
           transform="matrix(1,0,0,-1,0,2250)"><tspan
             id="tspan266"
             y="0"
             x="0">❺</tspan></text>
</g><g
         transform="matrix(0.24,0,0,0.24,526.7952,-246.24)"
         id="g270"><text
           id="text274"
           style="font-variant:normal;font-weight:normal;font-size:50px;font-family:TrebuchetMS;-inkscape-font-specification:TrebuchetMS;writing-mode:lr-tb;fill:#000000;fill-opacity:1;fill-rule:nonzero;stroke:none"
           transform="matrix(1,0,0,-1,0,2250)"><tspan
             id="tspan272"
             y="0"
             x="0 25 52.099998 71.900002 97.949997 117.75 137 163.05 177.10001 204.2 218.25 245.35001 270.35001 296.39999 324 350.04999 369.85001 395.89999 414.14999">get_training_data()</tspan></text>
</g><path
         id="path276"
         style="fill:#000000;fill-opacity:1;fill-rule:nonzero;stroke:none"
         d="m 497.706,247.2019 h 120.5972 v -2.25 H 497.706 Z m 119.4721,2.25 6.75,-3.375 -6.75,-3.375 z" /><g
         transform="matrix(0.24,0,0,0.24,508.3796,-287.52)"
         id="g278"><text
           id="text282"
           style="font-variant:normal;font-weight:normal;font-size:50px;font-family:CambriaMath;-inkscape-font-specification:CambriaMath;writing-mode:lr-tb;fill:#000000;fill-opacity:1;fill-rule:nonzero;stroke:none"
           transform="matrix(1,0,0,-1,0,2250)"><tspan
             id="tspan280"
             y="0"
             x="0">❼</tspan></text>
</g><g
         transform="matrix(0.24,0,0,0.24,526.3796,-287.52)"
         id="g284"><text
           id="text288"
           style="font-variant:normal;font-weight:normal;font-size:50px;font-family:TrebuchetMS;-inkscape-font-specification:TrebuchetMS;writing-mode:lr-tb;fill:#000000;fill-opacity:1;fill-rule:nonzero;stroke:none"
           transform="matrix(1,0,0,-1,0,2250)"><tspan
             id="tspan286"
             y="0"
             x="0 27.605 54.709999 69.315002 96.419998 116.225 143.33 169.38499 189.69 216.795 237.10001 257.405 271.45999 298.565 325.67001 343.92499">delete_session()</tspan></text>
</g><path
         id="path290"
         style="fill:#000000;fill-opacity:1;fill-rule:nonzero;stroke:none"
         d="m 652.8253,231.9127 -47.5275,-24.055 1.016,-2.0075 47.5275,24.055 z m -47.5398,-21.5395 -4.4985,-6.0594 7.5466,0.0369 z" /><g
         transform="matrix(0.24,0,0,0.24,527.009,-323.76)"
         id="g292"><text
           id="text296"
           style="font-variant:normal;font-weight:normal;font-size:50px;font-family:CambriaMath;-inkscape-font-specification:CambriaMath;writing-mode:lr-tb;fill:#000000;fill-opacity:1;fill-rule:nonzero;stroke:none"
           transform="matrix(1,0,0,-1,0,2250)"><tspan
             id="tspan294"
             y="0"
             x="0">❸</tspan></text>
</g><g
         transform="matrix(0.24,0,0,0.24,545.009,-323.76)"
         id="g298"><text
           id="text302"
           style="font-variant:normal;font-weight:normal;font-size:50px;font-family:TrebuchetMS;-inkscape-font-specification:TrebuchetMS;writing-mode:lr-tb;fill:#000000;fill-opacity:1;fill-rule:nonzero;stroke:none"
           transform="matrix(1,0,0,-1,0,2250)"><tspan
             id="tspan300"
             y="0"
             x="0 28.125 62 85.974998 114.25 129.375 148.64999 175.72501 203.35001 230.425 257.5 277.82501">POST request</tspan></text>
</g><path
         id="path304"
         style="fill:#000000;fill-opacity:1;fill-rule:nonzero;stroke:none"
         d="m 600.8678,159.9157 10e-5,-17.4408 h -2.25 l -10e-5,17.4408 z m 2.2501,-16.3158 -3.375,-6.75 -3.375,6.75 z" /><path
         id="path306"
         style="fill:#000000;fill-opacity:1;fill-rule:nonzero;stroke:none"
         d="m 639.4241,106.073 5.4631,0.138 3.5798,0.2637 -0.1654,2.244 -3.5527,-0.2618 0.0543,0.003 -5.4359,-0.1373 0.0568,-2.2493 z m 15.848,1.1538 2.2256,0.3619 2.1658,0.4178 2.0005,0.4561 1.817,0.4915 0.7394,0.2402 -0.6952,2.1399 -0.7127,-0.2316 0.0539,0.0161 -1.7681,-0.4783 0.0437,0.0109 -1.9602,-0.4469 0.0369,0.008 -2.1309,-0.4111 0.0325,0.006 -2.2093,-0.3592 0.3611,-2.2209 z m 14.5112,6.1821 0.2641,0.3077 -0.2019,-0.1842 0.7862,0.5588 -0.1385,-0.0841 1.0638,0.5453 -0.0958,-0.0435 1.3198,0.5274 -0.0698,-0.0252 1.5546,0.505 -0.0539,-0.016 1.7681,0.4782 -0.0436,-0.0108 1.5082,0.3438 -0.5001,2.1937 -1.5302,-0.3488 -1.817,-0.4915 -1.6167,-0.5252 -1.4033,-0.5608 -1.1829,-0.6065 -0.9646,-0.6856 -0.3538,-0.4121 z m 14.215,4.0116 0.619,0.0838 -0.0279,-0.003 2.5152,0.2767 -0.05,-0.004 5.0795,0.3304 -0.1461,2.2452 -5.1045,-0.332 -2.5542,-0.2811 -0.6328,-0.0856 0.3018,-2.2297 z m 7.0553,-1.6062 6.6291,3.6068 -6.8629,3.1392 z" /><g
         transform="matrix(0.24,0,0,0.24,656.1882,-389.52)"
         id="g308"><text
           id="text312"
           style="font-variant:normal;font-weight:normal;font-size:50px;font-family:TrebuchetMS;-inkscape-font-specification:TrebuchetMS;writing-mode:lr-tb;fill:#000000;fill-opacity:1;fill-rule:nonzero;stroke:none"
           transform="matrix(1,0,0,-1,0,2250)"><tspan
             id="tspan310"
             y="0"
             x="0 28.125 55.200001 82.824997 97.400002 111.475 131.8 158.875">Publish </tspan></text>
</g><g
         transform="matrix(0.24,0,0,0.24,662.0632,-403.68)"
         id="g314"><text
           id="text318"
           style="font-variant:normal;font-weight:normal;font-size:50px;font-family:TrebuchetMS;-inkscape-font-specification:TrebuchetMS;writing-mode:lr-tb;fill:#000000;fill-opacity:1;fill-rule:nonzero;stroke:none"
           transform="matrix(1,0,0,-1,0,2250)"><tspan
             id="tspan316"
             y="0"
             x="0 23.959999 43.77 69.830002 89.639999">Stats</tspan></text>
</g><path
         id="path320"
         style="fill:#000000;fill-opacity:1;fill-rule:nonzero;stroke:none"
         d="m 697.6516,174.0171 -5.7486,0.1586 -3.2979,0.2656 0.1806,2.2428 3.2683,-0.2632 -0.0593,0.003 5.719,-0.1579 -0.0621,-2.2491 z m -15.8249,1.1983 -0.7632,0.1129 -2.4329,0.4323 -2.2796,0.4807 -2.1057,0.5247 -1.3578,0.4013 0.6379,2.1577 1.3344,-0.3944 -0.0469,0.0127 2.0623,-0.5138 -0.0399,0.009 2.2419,-0.4727 -0.0352,0.007 2.3991,-0.4264 -0.0322,0.005 0.7471,-0.1106 -0.3293,-2.2257 z m -15.3845,5.4363 -0.272,0.3463 -0.2355,0.8809 -0.1759,0.658 0.2021,-0.4044 -0.5127,0.6529 0.1946,-0.1936 -0.8272,0.6426 0.1402,-0.093 -1.1191,0.6271 0.0996,-0.0495 -1.3885,0.6065 0.0738,-0.0292 -1.6356,0.5808 0.0575,-0.0187 -0.9752,0.2883 0.6379,2.1576 1.0042,-0.2968 1.7015,-0.6042 1.4761,-0.6447 1.2413,-0.6956 1.0029,-0.7791 0.7407,-0.943 0.2355,-0.8809 0.1759,-0.658 -0.2021,0.4043 0.1295,-0.1648 z m -12.8298,5.9611 -1.0103,0.1796 0.0321,-0.005 -2.5338,0.3749 0.0303,-0.004 -2.6462,0.3183 0.054,-0.005 -2.7401,0.1961 0.1606,2.2443 2.7672,-0.1981 2.6883,-0.3233 2.5652,-0.3796 1.0264,-0.1824 -0.3937,-2.2153 z m -10.6265,-1.029 -6.6254,3.6134 6.866,3.1323 z" /><path
         id="path322"
         style="fill:#000000;fill-opacity:1;fill-rule:nonzero;stroke:none"
         d="m 390.1935,358.4583 -90.0653,-1e-4 v -2.25 l 90.0653,1e-4 z m -88.9403,2.2499 -6.75,-3.375 6.75,-3.375 z" /><g
         transform="matrix(0.24,0,0,0.24,321.0584,-176.4)"
         id="g324"><text
           id="text328"
           style="font-variant:normal;font-weight:normal;font-size:50px;font-family:CambriaMath;-inkscape-font-specification:CambriaMath;writing-mode:lr-tb;fill:#000000;fill-opacity:1;fill-rule:nonzero;stroke:none"
           transform="matrix(1,0,0,-1,0,2250)"><tspan
             id="tspan326"
             y="0"
             x="0">❹</tspan></text>
</g><g
         transform="matrix(0.24,0,0,0.24,339.0584,-176.4)"
         id="g330"><text
           id="text334"
           style="font-variant:normal;font-weight:normal;font-size:50px;font-family:TrebuchetMS;-inkscape-font-specification:TrebuchetMS;writing-mode:lr-tb;fill:#000000;fill-opacity:1;fill-rule:nonzero;stroke:none"
           transform="matrix(1,0,0,-1,0,2250)"><tspan
             id="tspan332"
             y="0"
             x="0 20.315001 40.080002 67.144997 94.760002 112.975">step()</tspan></text>
</g><path
         id="path336"
         style="fill:#000000;fill-opacity:1;fill-rule:nonzero;stroke:none"
         d="m 390.1935,269.7478 -90.0653,-10e-5 v -2.25 l 90.0653,10e-5 z m -88.9403,2.2499 -6.75,-3.375 6.75,-3.375 z" /><g
         transform="matrix(0.24,0,0,0.24,306.9494,-264.24)"
         id="g338"><text
           id="text342"
           style="font-variant:normal;font-weight:normal;font-size:50px;font-family:CambriaMath;-inkscape-font-specification:CambriaMath;writing-mode:lr-tb;fill:#000000;fill-opacity:1;fill-rule:nonzero;stroke:none"
           transform="matrix(1,0,0,-1,0,2250)"><tspan
             id="tspan340"
             y="0"
             x="0">❻</tspan></text>
</g><g
         transform="matrix(0.24,0,0,0.24,324.9494,-264.24)"
         id="g344"><text
           id="text348"
           style="font-variant:normal;font-weight:normal;font-size:50px;font-family:TrebuchetMS;-inkscape-font-specification:TrebuchetMS;writing-mode:lr-tb;fill:#000000;fill-opacity:1;fill-rule:nonzero;stroke:none"
           transform="matrix(1,0,0,-1,0,2250)"><tspan
             id="tspan346"
             y="0"
             x="0 25 52.099998 93.75 121.35 148.45 168.25 195.35001 221.39999 241.7 266.70001 293.79999 313.04999 340.14999 358.39999">compute_score()</tspan></text>
</g><g
         transform="matrix(0.24,0,0,0.24,407.5514,-332.64)"
         id="g350"><text
           id="text354"
           style="font-variant:normal;font-weight:normal;font-size:50px;font-family:CambriaMath;-inkscape-font-specification:CambriaMath;writing-mode:lr-tb;fill:#000000;fill-opacity:1;fill-rule:nonzero;stroke:none"
           transform="matrix(1,0,0,-1,0,2250)"><tspan
             id="tspan352"
             y="0"
             x="0">❽</tspan></text>
</g><g
         transform="matrix(0.24,0,0,0.24,425.5514,-332.64)"
         id="g356"><text
           id="text360"
           style="font-variant:normal;font-weight:normal;font-size:50px;font-family:TrebuchetMS;-inkscape-font-specification:TrebuchetMS;writing-mode:lr-tb;fill:#000000;fill-opacity:1;fill-rule:nonzero;stroke:none"
           transform="matrix(1,0,0,-1,0,2250)"><tspan
             id="tspan358"
             y="0"
             x="0 25 49.5 75.550003 103.15 130.25 150.05 168.3">kv_put()</tspan></text>
</g><path
         id="path362"
         style="fill:#000000;fill-opacity:1;fill-rule:nonzero;stroke:none"
         d="m 381.8473,165.4704 -69.8352,-1e-4 v -2.25 l 69.8352,1e-4 z m -68.7102,2.2499 -6.75,-3.375 6.75,-3.375 z" /><g
         transform="matrix(0.24,0,0,0.24,337.809,-371.28)"
         id="g364"><text
           id="text368"
           style="font-variant:normal;font-weight:normal;font-size:50px;font-family:CambriaMath;-inkscape-font-specification:CambriaMath;writing-mode:lr-tb;fill:#000000;fill-opacity:1;fill-rule:nonzero;stroke:none"
           transform="matrix(1,0,0,-1,0,2250)"><tspan
             id="tspan366"
             y="0"
             x="0">❾</tspan></text>
</g><g
         transform="matrix(0.24,0,0,0.24,322.9341,-386.4)"
         id="g370"><text
           id="text374"
           style="font-variant:normal;font-weight:normal;font-size:50px;font-family:TrebuchetMS;-inkscape-font-specification:TrebuchetMS;writing-mode:lr-tb;fill:#000000;fill-opacity:1;fill-rule:nonzero;stroke:none"
           transform="matrix(1,0,0,-1,0,2250)"><tspan
             id="tspan372"
             y="0"
             x="0 25 49.5 75.550003 100.55 127.65 147.45 165.7">kv_get()</tspan></text>
</g><path
         id="path376"
         style="fill:#000000;fill-opacity:1;fill-rule:nonzero;stroke:none"
         d="m 305.7723,100.87 72.8236,-1e-4 v -2.25 l -72.8236,7e-5 z m 71.6986,2.2499 6.75,-3.37501 -6.75,-3.37499 z" /><g
         transform="matrix(0.24,0,0,0.24,334.7849,-436.08)"
         id="g378"><text
           id="text382"
           style="font-variant:normal;font-weight:normal;font-size:50px;font-family:CambriaMath;-inkscape-font-specification:CambriaMath;writing-mode:lr-tb;fill:#000000;fill-opacity:1;fill-rule:nonzero;stroke:none"
           transform="matrix(1,0,0,-1,0,2250)"><tspan
             id="tspan380"
             y="0"
             x="0">❿</tspan></text>
</g><g
         transform="matrix(0.24,0,0,0.24,309.4349,-450.96)"
         id="g384"><text
           id="text388"
           style="font-variant:normal;font-weight:normal;font-size:50px;font-family:TrebuchetMS;-inkscape-font-specification:TrebuchetMS;writing-mode:lr-tb;fill:#000000;fill-opacity:1;fill-rule:nonzero;stroke:none"
           transform="matrix(1,0,0,-1,0,2250)"><tspan
             id="tspan386"
             y="0"
             x="0 28.125 55.200001 75.525002 102.6 117.725 158.14999 185.22501 199.3 224.27499 251.35001">Push Weight</tspan></text>
</g><path
         id="path390"
         style="fill:#000000;fill-opacity:1;fill-rule:nonzero;stroke:none"
         d="m 474.361,97.82878 67.528,0.10089 -0.003,2.25003 -67.5279,-0.1009 0.003,-2.25002 z m 66.4063,-2.15079 6.745,3.38508 -6.7551,3.36493 z" /><g
         transform="matrix(0.24,0,0,0.24,503.253,-436.8)"
         id="g392"><text
           id="text396"
           style="font-variant:normal;font-weight:normal;font-size:50px;font-family:CambriaMath;-inkscape-font-specification:CambriaMath;writing-mode:lr-tb;fill:#000000;fill-opacity:1;fill-rule:nonzero;stroke:none"
           transform="matrix(1,0,0,-1,0,2250)"><tspan
             id="tspan394"
             y="0"
             x="0">⓫</tspan></text>
</g><g
         transform="matrix(0.24,0,0,0.24,480.093,-451.92)"
         id="g398"><text
           id="text402"
           style="font-variant:normal;font-weight:normal;font-size:50px;font-family:TrebuchetMS;-inkscape-font-specification:TrebuchetMS;writing-mode:lr-tb;fill:#000000;fill-opacity:1;fill-rule:nonzero;stroke:none"
           transform="matrix(1,0,0,-1,0,2250)"><tspan
             id="tspan400"
             y="0"
             x="0 28.125 55.200001 69.775002 84.349998 99.474998 139.89999 166.97501 181.05 206.02499 233.10001">Pull Weight</tspan></text>
</g><path
         id="path404"
         style="fill:#000000;fill-opacity:1;fill-rule:nonzero;stroke:none"
         d="m 623.9281,371.3434 h -9 l 10e-5,-2.25 h 9 z m -15.75,0 h -2.25 l 10e-5,-2.25 h 2.25 z m -8.9999,0 h -9 v -2.25 h 9 z m -15.75,0 h -2.25 v -2.25 h 2.25 z m -9,0 h -9 v -2.25 h 9 z m -15.75,0 h -2.25 v -2.25 h 2.25 z m -9,0 h -9 v -2.25 h 9 z m -15.75,0 h -2.25 v -2.25 h 2.25 z m -9,0 h -9 v -2.25 h 9 z m -15.75,0 h -2.25 v -2.25 h 2.25 z m -5.4964,2.25 -6.75,-3.375 6.75,-3.375 z" /><g
         transform="matrix(0.24,0,0,0.24,534.4421,-184.08)"
         id="g406"><text
           id="text410"
           style="font-variant:normal;font-weight:normal;font-size:50px;font-family:TrebuchetMS;-inkscape-font-specification:TrebuchetMS;writing-mode:lr-tb;fill:#000000;fill-opacity:1;fill-rule:nonzero;stroke:none"
           transform="matrix(1,0,0,-1,0,2250)"><tspan
             id="tspan408"
             y="0"
             x="0 23.959999 51.07 71.379997 91.690002 105.75 132.86 159.92 175.03 189.09">Session ID</tspan></text>
</g><path
         id="path412"
         style="fill:#000000;fill-opacity:1;fill-rule:nonzero;stroke:none"
         d="m 623.9281,324.8917 h -9 l 10e-5,-2.25 h 9 z m -15.75,0 h -2.25 l 10e-5,-2.25 h 2.25 z m -8.9999,0 h -9 v -2.25 h 9 z m -15.75,0 h -2.25 v -2.25 h 2.25 z m -9,0 h -9 v -2.25 h 9 z m -15.75,0 h -2.25 v -2.25 h 2.25 z m -9,0 -9,-1e-4 v -2.25 l 9,1e-4 z m -15.75,-1e-4 h -2.25 v -2.25 h 2.25 z m -9,0 h -9 v -2.25 h 9 z m -15.75,0 h -2.25 v -2.25 h 2.25 z m -5.4964,2.25 -6.75,-3.375 6.75,-3.375 z" /><g
         transform="matrix(0.24,0,0,0.24,536.3721,-230.4)"
         id="g414"><text
           id="text418"
           style="font-variant:normal;font-weight:normal;font-size:50px;font-family:TrebuchetMS;-inkscape-font-specification:TrebuchetMS;writing-mode:lr-tb;fill:#000000;fill-opacity:1;fill-rule:nonzero;stroke:none"
           transform="matrix(1,0,0,-1,0,2250)"><tspan
             id="tspan416"
             y="0"
             x="0 27.145 54.240002 74.535004 102.13 129.22501 156.32001 176.61501">Response</tspan></text>
</g><path
         id="path420"
         style="fill:#000000;fill-opacity:1;fill-rule:nonzero;stroke:none"
         d="m 623.9281,283.0852 h -9 l 10e-5,-2.25 h 9 z m -15.75,0 h -2.25 l 10e-5,-2.25 h 2.25 z m -8.9999,-10e-5 h -9 v -2.25 h 9 z m -15.75,0 h -2.25 v -2.25 h 2.25 z m -9,0 h -9 v -2.25 h 9 z m -15.75,0 h -2.25 v -2.25 h 2.25 z m -9,0 h -9 v -2.25 h 9 z m -15.75,0 h -2.25 v -2.25 h 2.25 z m -9,0 h -9 v -2.25 h 9 z m -15.75,0 h -2.25 v -2.25 h 2.25 z m -5.4964,2.25 -6.75,-3.375 6.75,-3.375 z" /><g
         transform="matrix(0.24,0,0,0.24,533.2271,-272.16)"
         id="g422"><text
           id="text426"
           style="font-variant:normal;font-weight:normal;font-size:50px;font-family:TrebuchetMS;-inkscape-font-specification:TrebuchetMS;writing-mode:lr-tb;fill:#000000;fill-opacity:1;fill-rule:nonzero;stroke:none"
           transform="matrix(1,0,0,-1,0,2250)"><tspan
             id="tspan424"
             y="0"
             x="0 23.665001 42.93 68.995003 87.209999 114.275 139.28999 159.105 186.17 205.435">Trajectory</tspan></text>
</g><path
         id="path428"
         style="fill:#000000;fill-opacity:1;fill-rule:nonzero;stroke:none"
         d="m 424.2233,230.909 1e-4,-36.7438 h -2.25 l -1e-4,36.7438 z m 2.2501,-35.6188 -3.375,-6.75 -3.375,6.75 z" /><g
         transform="matrix(0.24,0,0,0.24,644.5979,-329.76)"
         id="g430"><text
           id="text434"
           style="font-variant:normal;font-weight:normal;font-size:66.66665649px;font-family:LucidaSans;-inkscape-font-specification:LucidaSans;writing-mode:lr-tb;fill:#000000;fill-opacity:1;fill-rule:nonzero;stroke:none"
           transform="matrix(1,0,0,-1,0,2250)"><tspan
             id="tspan432"
             y="0"
             x="0 42.186661 83.306656 102.55999 121.81332 162.93332 204.05331 229.03998 250.42664 286.34665 323.33331 350.38663 384.77328 404.02661 438.4133">Rollout Service</tspan></text>
</g></g></g></svg>